<?xml version="1.0" encoding="utf-8"?>
<!-- Generator: Adobe Illustrator 24.0.3, SVG Export Plug-In . SVG Version: 6.00 Build 0)  -->
<svg version="1.1" id="Lager_1" xmlns="http://www.w3.org/2000/svg" xmlns:xlink="http://www.w3.org/1999/xlink" x="0px" y="0px"
	 viewBox="0 0 66.51 63.84" style="enable-background:new 0 0 66.51 63.84;" xml:space="preserve">
<style type="text/css">
	.st0{fill:#FFFFFF;}
</style>
<g>
	<g>
		<path class="st0" d="M21.43,27.43L45.4,13.59c1.57-0.91,3.49-0.66,4.79,0.47l0.19-0.11L43.12,1.37c-0.57-0.99-1.84-1.33-2.83-0.76
			l-22.17,12.8c-2.64,1.52-3.54,4.9-2.02,7.54l3.45,5.97C19.93,27.58,20.77,27.81,21.43,27.43"/>
		<path class="st0" d="M44.96,21.49L21,35.32c-1.57,0.91-3.49,0.67-4.79-0.47l-0.19,0.11l7.26,12.58c0.57,0.99,1.84,1.33,2.83,0.76
			l22.17-12.8c2.64-1.52,3.54-4.9,2.02-7.54l-3.45-5.97C46.46,21.33,45.62,21.11,44.96,21.49"/>
		<path class="st0" d="M0.19,62.75l0.83-0.99c0.57,0.47,1.17,0.77,1.9,0.77c0.57,0,0.92-0.23,0.92-0.6v-0.02
			c0-0.35-0.22-0.54-1.28-0.81c-1.28-0.33-2.11-0.68-2.11-1.95v-0.02c0-1.16,0.93-1.92,2.23-1.92c0.93,0,1.72,0.29,2.37,0.81
			l-0.73,1.06c-0.56-0.39-1.12-0.63-1.66-0.63s-0.82,0.24-0.82,0.55v0.02c0,0.42,0.27,0.56,1.37,0.84c1.29,0.34,2.02,0.8,2.02,1.91
			v0.02c0,1.26-0.96,1.97-2.34,1.97C1.92,63.77,0.95,63.44,0.19,62.75"/>
	</g>
	<polygon class="st0" points="14.15,57.32 12.49,61.8 10.82,57.32 9.28,57.32 11.85,63.73 13.09,63.73 15.66,57.32 	"/>
	<path class="st0" d="M22.36,58.95l0.85,2.06h-1.69L22.36,58.95z M21.74,57.27l-2.73,6.41h1.43l0.58-1.43h2.69l0.58,1.43h1.46
		l-2.73-6.41H21.74z"/>
	<polygon class="st0" points="30.39,57.32 30.39,63.68 34.97,63.68 34.97,62.41 31.79,62.41 31.79,57.32 	"/>
	<polygon class="st0" points="44.2,57.32 44.2,61.24 41.22,57.32 39.92,57.32 39.92,63.68 41.31,63.68 41.31,59.64 44.39,63.68 
		45.58,63.68 45.58,57.32 	"/>
	<polygon class="st0" points="50.9,57.32 50.9,63.68 55.75,63.68 55.75,62.44 52.29,62.44 52.29,61.1 55.29,61.1 55.29,59.85 
		52.29,59.85 52.29,58.56 55.7,58.56 55.7,57.32 	"/>
	<g>
		<path class="st0" d="M63.52,60.41c0.68,0,1.07-0.36,1.07-0.9v-0.02c0-0.6-0.42-0.91-1.1-0.91H62.1v1.83H63.52z M60.7,57.32h2.91
			c0.81,0,1.44,0.23,1.85,0.65c0.36,0.35,0.55,0.85,0.55,1.46v0.02c0,1.03-0.55,1.67-1.36,1.97l1.56,2.27h-1.64l-1.36-2.04h-1.1
			v2.04h-1.4V57.32z"/>
	</g>
</g>
</svg>
